<?xml version="1.0" encoding="UTF-8"?>
<svg id="finals" xmlns="http://www.w3.org/2000/svg" viewBox="0 0 501.74 300">
  <defs>
    <style>
      .cls-1 {
        fill: #782f40;
      }

      .cls-1, .cls-2 {
        stroke-width: 0px;
      }

      .cls-2 {
        fill: #fff;
      }
    </style>
  </defs>
  <path class="cls-1" d="M427.96,202.79v-124.89h-31.84v117.04c-3.4.42-12.95.64-19.31.64-7,0-17.4-.21-19.74-.64v-117.04h-41.39s9.97,7,9.97,17.62v126.16l1.91.64c.64.21,17.4,4.67,49.24,4.67,28.87,0,55.18-5.73,55.4-5.94l5.52-1.06s-9.76-2.34-9.76-17.19ZM415.01,212.12s-9.76,2.76-38.42,2.76c-22.5,0-38.84-2.76-38.84-2.76v-122.13h6.79v115.97s15.07,2.12,32.05,2.12c24.41,0,31.62-2.12,31.62-2.12v-115.97h6.79v122.13Z"/>
  <g>
    <path class="cls-1" d="M130.83,72.9c-33.32,0-59.64,6.16-59.85,6.16l-5.31,1.27,4.46,3.18c4.88,3.61,6.79,7.22,7,12.95,0,0-.21,108.02,0,113.76,0,5.31-2.12,8.49-7,12.31l-6.16,4.46h57.94l-6.16-4.46s-6.79-5.73-6.58-12.31v-38.41h61.13c2.12.21,5.31,1.49,5.31,1.49l4.03,2.55v-39.48l-3.82,2.33s-2.12,1.27-5.09,1.27h-61.55v-34.81s12.52-1.7,19.31-1.7,24.83,1.91,33.32,5.09c9.76,3.82,17.83,11.04,17.83,11.04v-41.39l-2.12-.42c-.21,0-20.16-4.88-46.69-4.88ZM169.46,98.79s-5.52-2.76-14.64-4.25c-9.34-1.7-13.16-2.12-26.11-2.33-17.83-.42-31.84,2.12-31.84,2.12v57.73h70.68v7.43h-70.68v56.45h-7.64l.21-127.98s15.07-3.4,39.05-3.4c12.95,0,26.11.85,40.96,3.4v10.82Z"/>
    <path class="cls-2" d="M89.45,87.97l-.21,127.98h7.64v-56.45h70.68v-7.43h-70.68v-57.73s14.01-2.55,31.84-2.12c12.95.21,16.77.64,26.11,2.33,9.13,1.49,14.64,4.25,14.64,4.25v-10.82c-14.86-2.55-28.02-3.4-40.96-3.4-23.98,0-39.05,3.4-39.05,3.4Z"/>
  </g>
  <path class="cls-2" d="M408.22,205.97s-7.22,2.12-31.62,2.12c-16.98,0-32.05-2.12-32.05-2.12v-115.97h-6.79v122.13s16.34,2.76,38.84,2.76c28.65,0,38.42-2.76,38.42-2.76v-122.13h-6.79v115.97Z"/>
  <g>
    <path class="cls-1" d="M303.91,203.85v-34.38c0-7.22-4.88-9.34-4.88-9.34l-66.01-40.75v-14.43c4.03-.64,7.85-1.27,24.62-.64,10.82.42,18.46,1.7,25.47,4.03,11.25,3.61,15.49,7,15.49,7l5.31,4.46-.21-41.81-2.55-.42c-.85-.21-24.41-4.67-49.45-4.67-31.62,0-54.55,5.73-55.61,5.94l-6.37,1.49,5.31,4.03c4.25,3.18,6.16,6.58,6.37,11.67l-.21,29.5c0,9.34,7,13.16,7,13.16l63.88,39.9v16.34c-3.82.64-9.13,1.27-25.68.64-11.04-.42-17.19-1.91-24.41-4.03-11.67-3.18-20.8-11.46-20.8-11.46v41.6l2.55.64c1.06.21,23.35,4.67,48.6,4.67,31.62,0,55.61-5.73,56.67-5.94l6.58-1.49-5.52-4.03c-4.24-3.18-5.94-6.58-6.15-11.67ZM291.6,211.91s-14.43,3.19-36.93,3.19c-12.52,0-26.96-.85-40.96-3.19v-10.19s5.52,2.55,14.01,4.03c8.91,1.48,14.43,1.91,26.53,2.12,16.98.43,30.14-1.91,30.14-1.91v-27.8c0-6.16-6.16-9.55-6.16-9.55l-58.58-36.72s-5.94-3.61-5.94-10.4v-33.53s13.16-3.18,35.66-3.18c12.31,0,27.8.85,42.02,3.18v10.19s-5.31-2.55-13.8-4.03c-8.91-1.7-15.71-1.91-28.02-2.12-16.77-.42-28.86,1.91-28.86,1.91v25.26c0,5.73,5.73,8.91,5.73,8.91l59.64,36.93s5.52,2.97,5.52,9.55v37.35Z"/>
    <path class="cls-2" d="M286.08,165.01l-59.64-36.93s-5.73-3.18-5.73-8.91v-25.26s12.1-2.33,28.86-1.91c12.31.21,19.1.42,28.02,2.12,8.49,1.49,13.8,4.03,13.8,4.03v-10.19c-14.22-2.33-29.71-3.18-42.02-3.18-22.5,0-35.66,3.18-35.66,3.18v33.53c0,6.79,5.94,10.4,5.94,10.4l58.58,36.72s6.16,3.39,6.16,9.55v27.8s-13.16,2.34-30.14,1.91c-12.1-.21-17.62-.64-26.53-2.12-8.49-1.49-14.01-4.03-14.01-4.03v10.19c14.01,2.34,28.44,3.19,40.96,3.19,22.5,0,36.93-3.19,36.93-3.19v-37.35c0-6.58-5.52-9.55-5.52-9.55Z"/>
  </g>
</svg>