<?xml version="1.0" encoding="UTF-8"?>
<svg id="finals" xmlns="http://www.w3.org/2000/svg" viewBox="0 0 501.74 300">
  <defs>
    <style>
      .cls-1 {
        fill: #ceb888;
      }

      .cls-1, .cls-2 {
        stroke-width: 0px;
      }

      .cls-2 {
        fill: #782f40;
      }
    </style>
  </defs>
  <path class="cls-2" d="M428.67,203.06v-125.38h-31.96v117.49c-3.41.43-13,.64-19.39.64-7.03,0-17.47-.21-19.82-.64v-117.49h-41.55s10.01,7.03,10.01,17.68v126.65l1.92.64c.64.21,17.47,4.69,49.43,4.69,28.98,0,55.4-5.75,55.61-5.97l5.54-1.07s-9.8-2.34-9.8-17.26ZM415.67,212.43s-9.8,2.77-38.56,2.77c-22.59,0-38.99-2.77-38.99-2.77v-122.61h6.82v116.43s15.13,2.13,32.17,2.13c24.5,0,31.75-2.13,31.75-2.13v-116.43h6.82v122.61Z"/>
  <g>
    <path class="cls-2" d="M130.39,72.66c-33.45,0-59.87,6.18-60.09,6.18l-5.33,1.28,4.47,3.2c4.9,3.62,6.82,7.24,7.03,13,0,0-.21,108.45,0,114.2,0,5.33-2.13,8.52-7.03,12.36l-6.18,4.48h58.17l-6.18-4.48s-6.82-5.75-6.6-12.36v-38.56h61.36c2.13.21,5.33,1.49,5.33,1.49l4.05,2.56v-39.63l-3.84,2.34s-2.13,1.28-5.11,1.28h-61.79v-34.94s12.57-1.7,19.39-1.7,24.93,1.92,33.45,5.11c9.8,3.84,17.9,11.08,17.9,11.08v-41.55l-2.13-.43c-.21,0-20.24-4.9-46.88-4.9ZM169.17,98.66s-5.54-2.77-14.7-4.26c-9.38-1.7-13.21-2.13-26.21-2.34-17.9-.43-31.96,2.13-31.96,2.13v57.96h70.95v7.46h-70.95v56.67h-7.67l.21-128.48s15.13-3.41,39.2-3.41c13,0,26.21.85,41.12,3.41v10.87Z"/>
    <path class="cls-1" d="M88.84,87.79l-.21,128.48h7.67v-56.67h70.95v-7.46h-70.95v-57.96s14.06-2.56,31.96-2.13c13,.21,16.83.64,26.21,2.34,9.16,1.49,14.7,4.26,14.7,4.26v-10.87c-14.92-2.56-28.13-3.41-41.12-3.41-24.08,0-39.2,3.41-39.2,3.41Z"/>
  </g>
  <path class="cls-1" d="M408.85,206.25s-7.24,2.13-31.75,2.13c-17.05,0-32.17-2.13-32.17-2.13v-116.43h-6.82v122.61s16.41,2.77,38.99,2.77c28.76,0,38.56-2.77,38.56-2.77v-122.61h-6.82v116.43Z"/>
  <g>
    <path class="cls-2" d="M304.14,204.12v-34.52c0-7.25-4.9-9.38-4.9-9.38l-66.27-40.91v-14.49c4.05-.64,7.88-1.28,24.72-.64,10.87.43,18.54,1.7,25.57,4.05,11.29,3.62,15.55,7.03,15.55,7.03l5.33,4.47-.21-41.98-2.56-.43c-.85-.21-24.5-4.69-49.64-4.69-31.75,0-54.76,5.75-55.83,5.97l-6.39,1.49,5.33,4.05c4.26,3.2,6.18,6.6,6.39,11.72l-.21,29.62c0,9.37,7.03,13.21,7.03,13.21l64.13,40.06v16.41c-3.83.64-9.16,1.28-25.78.64-11.08-.43-17.26-1.92-24.5-4.05-11.72-3.2-20.88-11.51-20.88-11.51v41.76l2.56.64c1.07.21,23.44,4.69,48.79,4.69,31.75,0,55.82-5.75,56.89-5.97l6.61-1.49-5.54-4.05c-4.26-3.2-5.97-6.61-6.18-11.72ZM291.78,212.22s-14.49,3.2-37.07,3.2c-12.57,0-27.06-.85-41.12-3.2v-10.23s5.54,2.56,14.06,4.05c8.95,1.49,14.49,1.92,26.63,2.13,17.04.43,30.26-1.92,30.26-1.92v-27.91c0-6.18-6.18-9.59-6.18-9.59l-58.81-36.86s-5.97-3.62-5.97-10.44v-33.67s13.21-3.2,35.8-3.2c12.36,0,27.91.85,42.19,3.2v10.23s-5.33-2.56-13.85-4.05c-8.95-1.71-15.77-1.92-28.13-2.13-16.83-.43-28.98,1.92-28.98,1.92v25.36c0,5.75,5.75,8.95,5.75,8.95l59.87,37.07s5.54,2.98,5.54,9.59v37.5Z"/>
    <path class="cls-1" d="M286.24,165.13l-59.87-37.07s-5.75-3.2-5.75-8.95v-25.36s12.15-2.34,28.98-1.92c12.36.21,19.18.43,28.13,2.13,8.52,1.49,13.85,4.05,13.85,4.05v-10.23c-14.28-2.34-29.83-3.2-42.19-3.2-22.59,0-35.8,3.2-35.8,3.2v33.67c0,6.82,5.97,10.44,5.97,10.44l58.81,36.86s6.18,3.41,6.18,9.59v27.91s-13.21,2.34-30.26,1.92c-12.15-.21-17.68-.64-26.63-2.13-8.52-1.49-14.06-4.05-14.06-4.05v10.23c14.06,2.34,28.55,3.2,41.12,3.2,22.58,0,37.07-3.2,37.07-3.2v-37.5c0-6.61-5.54-9.59-5.54-9.59Z"/>
  </g>
</svg>