<?xml version="1.0" encoding="UTF-8"?>
<svg width="1770" height="864" viewBox="0 0 1770 864"
  xml:space="preserve"
  version="1.1"
  xmlns="http://www.w3.org/2000/svg">

<title>Graphic of net "Z:\Users\ralmond\ownCloud\Projects\Heart\HeartNet" generated by an unlicensed user using Netica 6.09 on Jun 06, 2023 at 20:28:05 UTC.</title>

<polygon points="826.107,186.46 821.641,179.822 833,177" fill="#000000" stroke="none"/>
<polyline points="678,282 824,183" stroke="#000000" stroke-width="1" fill="none"/>
<polygon points="737.358,318.827 732.889,325.462 726,316" fill="#000000" stroke="none"/>
<polyline points="942,462 735,322" stroke="#000000" stroke-width="1" fill="none"/>
<polygon points="718.522,617.937 717.155,625.82 707,620" fill="#000000" stroke="none"/>
<polyline points="942,660 717,622" stroke="#000000" stroke-width="1" fill="none"/>
<polygon points="715.379,558.827 718.671,566.118 707,567" fill="#000000" stroke="none"/>
<polyline points="942,462 717,563" stroke="#000000" stroke-width="1" fill="none"/>
<polygon points="387.676,300.179 385.476,307.871 376,301" fill="#000000" stroke="none"/>
<polyline points="942,462 386,304" stroke="#000000" stroke-width="1" fill="none"/>
<polygon points="737,458 737,466 726,462" fill="#000000" stroke="none"/>
<polyline points="942,462 737,462" stroke="#000000" stroke-width="1" fill="none"/>
<polygon points="1082.83,332.5 1077.29,326.725 1088,322" fill="#000000" stroke="none"/>
<polyline points="942,462 1080,329" stroke="#000000" stroke-width="1" fill="none"/>
<polygon points="1198.4,601.414 1202.13,594.335 1210,603" fill="#000000" stroke="none"/>
<polyline points="942,462 1201,598" stroke="#000000" stroke-width="1" fill="none"/>
<polygon points="1187.33,645.822 1186.73,637.845 1198,641" fill="#000000" stroke="none"/>
<polyline points="942,660 1188,642" stroke="#000000" stroke-width="1" fill="none"/>
<polygon points="1374.47,542.004 1375.87,534.129 1386,540" fill="#000000" stroke="none"/>
<polyline points="942,462 1376,538" stroke="#000000" stroke-width="1" fill="none"/>
<polygon points="1377.7,592.254 1374.34,584.996 1386,584" fill="#000000" stroke="none"/>
<polyline points="1272,636 1376,588" stroke="#000000" stroke-width="1" fill="none"/>
<polygon points="1372.32,435.78 1371.74,427.801 1383,431" fill="#000000" stroke="none"/>
<polyline points="942,462 1373,432" stroke="#000000" stroke-width="1" fill="none"/>
<polygon points="938,616 946,616 942,627" fill="#000000" stroke="none"/>
<polyline points="942,462 942,617" stroke="#000000" stroke-width="1" fill="none"/>
<polygon points="447.225,684.672 450.653,691.901 439,693" fill="#000000" stroke="none"/>
<polyline points="618,606 448,689" stroke="#000000" stroke-width="1" fill="none"/>
<polygon points="433.577,509.271 435.662,516.994 424,516" fill="#000000" stroke="none"/>
<polyline points="624,462 434,513" stroke="#000000" stroke-width="1" fill="none"/>
<polygon points="1288.55,194.025 1284.49,187.129 1296,185" fill="#000000" stroke="none"/>
<polyline points="1122,288 1287,190" stroke="#000000" stroke-width="1" fill="none"/>
<polygon points="1300,338.481 1297.3,330.951 1309,331" fill="#000000" stroke="none"/>
<polyline points="942,462 1299,335" stroke="#000000" stroke-width="1" fill="none"/>
<g id="Sex">
<rect x="791" y="124" width="158" height="52" fill="#f8eed2" stroke-width="0"/>
<text x="860" y="140" font-family="Arial" font-size="11.25" font-weight="bold">Sex</text>
<line x1="791" y1="144" x2="949" y2="144" stroke="#000000" stroke-width="1"/>
<text x="802" y="158" font-family="Arial" font-size="11.25">Male</text>
<text x="802" y="172" font-family="Arial" font-size="11.25">Female</text>
<text x="861" y="158" font-family="Arial" font-size="11.25">77.4</text>
<text x="861" y="172" font-family="Arial" font-size="11.25">22.6</text>
<rect x="888" y="144" width="61" height="32" fill="#c6bea8" stroke-width="0"/>
<line x1="903" y1="145" x2="903" y2="175" stroke="black" stroke-width="1" stroke-dasharray="3,3"/>
<line x1="919" y1="145" x2="919" y2="175" stroke="black" stroke-width="1" stroke-dasharray="3,3"/>
<line x1="934" y1="145" x2="934" y2="175" stroke="black" stroke-width="1" stroke-dasharray="3,3"/>
<rect x="888" y="150" width="47" height="7" fill="#000000" stroke-width="0"/>
<rect x="888" y="164" width="14" height="7" fill="#000000" stroke-width="0"/>
<rect x="888" y="144" width="61" height="32" fill-opacity="0" stroke="#000000" stroke-width="1"/>
<rect x="791" y="124" width="158" height="52" fill-opacity="0" stroke="#000000" stroke-width="1"/>
</g>
<g id="thal">
<rect x="572" y="249" width="211" height="66" fill="#f8eed2" stroke-width="0"/>
<text x="627" y="265" font-family="Arial" font-size="11.25" font-weight="bold">Exer-Thal-Defects</text>
<line x1="572" y1="269" x2="783" y2="269" stroke="#000000" stroke-width="1"/>
<text x="583" y="283" font-family="Arial" font-size="11.25">Normal</text>
<text x="583" y="297" font-family="Arial" font-size="11.25">FixedDefect</text>
<text x="583" y="311" font-family="Arial" font-size="11.25">ReversibleDefect</text>
<text x="695" y="283" font-family="Arial" font-size="11.25">27.4</text>
<text x="695" y="297" font-family="Arial" font-size="11.25">10.6</text>
<text x="695" y="311" font-family="Arial" font-size="11.25">61.9</text>
<rect x="722" y="269" width="61" height="46" fill="#c6bea8" stroke-width="0"/>
<line x1="737" y1="270" x2="737" y2="314" stroke="black" stroke-width="1" stroke-dasharray="3,3"/>
<line x1="753" y1="270" x2="753" y2="314" stroke="black" stroke-width="1" stroke-dasharray="3,3"/>
<line x1="768" y1="270" x2="768" y2="314" stroke="black" stroke-width="1" stroke-dasharray="3,3"/>
<rect x="722" y="275" width="17" height="7" fill="#000000" stroke-width="0"/>
<rect x="722" y="289" width="6" height="7" fill="#000000" stroke-width="0"/>
<rect x="722" y="303" width="38" height="7" fill="#000000" stroke-width="0"/>
<rect x="722" y="269" width="61" height="46" fill-opacity="0" stroke="#000000" stroke-width="1"/>
<rect x="572" y="249" width="211" height="66" fill-opacity="0" stroke="#000000" stroke-width="1"/>
</g>
<g id="Age">
<rect x="530" y="566" width="176" height="80" fill="#f8eed2" stroke-width="0"/>
<text x="608" y="582" font-family="Arial" font-size="11.25" font-weight="bold">Age</text>
<line x1="530" y1="586" x2="706" y2="586" stroke="#000000" stroke-width="1"/>
<text x="541" y="600" font-family="Arial" font-size="11.25">FiftyMinus</text>
<text x="541" y="614" font-family="Arial" font-size="11.25">FiftyPlus</text>
<text x="541" y="628" font-family="Arial" font-size="11.25">SixtyMinus</text>
<text x="541" y="642" font-family="Arial" font-size="11.25">SixtyPlus</text>
<text x="618" y="600" font-family="Arial" font-size="11.25">3.68</text>
<text x="618" y="614" font-family="Arial" font-size="11.25">14.8</text>
<text x="618" y="628" font-family="Arial" font-size="11.25">29.5</text>
<text x="618" y="642" font-family="Arial" font-size="11.25">52.1</text>
<rect x="645" y="586" width="61" height="60" fill="#c6bea8" stroke-width="0"/>
<line x1="660" y1="587" x2="660" y2="645" stroke="black" stroke-width="1" stroke-dasharray="3,3"/>
<line x1="676" y1="587" x2="676" y2="645" stroke="black" stroke-width="1" stroke-dasharray="3,3"/>
<line x1="691" y1="587" x2="691" y2="645" stroke="black" stroke-width="1" stroke-dasharray="3,3"/>
<rect x="645" y="592" width="2" height="7" fill="#000000" stroke-width="0"/>
<rect x="645" y="606" width="9" height="7" fill="#000000" stroke-width="0"/>
<rect x="645" y="620" width="18" height="7" fill="#000000" stroke-width="0"/>
<rect x="645" y="634" width="32" height="7" fill="#000000" stroke-width="0"/>
<rect x="645" y="586" width="61" height="60" fill-opacity="0" stroke="#000000" stroke-width="1"/>
<rect x="530" y="566" width="176" height="80" fill-opacity="0" stroke="#000000" stroke-width="1"/>
</g>
<g id="healthy">
<rect x="237" y="256" width="138" height="52" fill="#c8c8c8" stroke-width="0"/>
<text x="282" y="272" font-family="Arial" font-size="11.25" font-weight="bold">Healthy?</text>
<line x1="237" y1="276" x2="375" y2="276" stroke="#000000" stroke-width="1"/>
<text x="248" y="290" font-family="Arial" font-size="11.25">Yes</text>
<text x="248" y="304" font-family="Arial" font-size="11.25">No</text>
<text x="295" y="290" font-family="Arial" font-size="11.25">   0</text>
<text x="287" y="304" font-family="Arial" font-size="11.25"> 100</text>
<rect x="314" y="276" width="61" height="32" fill="#a0a0a0" stroke-width="0"/>
<line x1="329" y1="277" x2="329" y2="307" stroke="black" stroke-width="1" stroke-dasharray="3,3"/>
<line x1="345" y1="277" x2="345" y2="307" stroke="black" stroke-width="1" stroke-dasharray="3,3"/>
<line x1="360" y1="277" x2="360" y2="307" stroke="black" stroke-width="1" stroke-dasharray="3,3"/>
<rect x="314" y="296" width="61" height="7" fill="#000000" stroke-width="0"/>
<rect x="314" y="294" width="61" height="11" fill-opacity="0" stroke="#000000" stroke-width="1"/>
<rect x="314" y="276" width="61" height="32" fill-opacity="0" stroke="#000000" stroke-width="1"/>
<rect x="237" y="256" width="138" height="52" fill-opacity="0" stroke="#000000" stroke-width="1"/>
</g>
<g id="CP">
<rect x="523" y="422" width="202" height="80" fill="#f8eed2" stroke-width="0"/>
<text x="594" y="438" font-family="Arial" font-size="11.25" font-weight="bold">Chest-Pain</text>
<line x1="523" y1="442" x2="725" y2="442" stroke="#000000" stroke-width="1"/>
<text x="534" y="456" font-family="Arial" font-size="11.25">TypicalAnginal</text>
<text x="534" y="470" font-family="Arial" font-size="11.25">AtypicalAnginal</text>
<text x="534" y="484" font-family="Arial" font-size="11.25">NonAnginal</text>
<text x="534" y="498" font-family="Arial" font-size="11.25">Asymptotic</text>
<text x="637" y="456" font-family="Arial" font-size="11.25">7.07</text>
<text x="637" y="470" font-family="Arial" font-size="11.25">8.45</text>
<text x="637" y="484" font-family="Arial" font-size="11.25">14.3</text>
<text x="637" y="498" font-family="Arial" font-size="11.25">70.2</text>
<rect x="664" y="442" width="61" height="60" fill="#c6bea8" stroke-width="0"/>
<line x1="679" y1="443" x2="679" y2="501" stroke="black" stroke-width="1" stroke-dasharray="3,3"/>
<line x1="695" y1="443" x2="695" y2="501" stroke="black" stroke-width="1" stroke-dasharray="3,3"/>
<line x1="710" y1="443" x2="710" y2="501" stroke="black" stroke-width="1" stroke-dasharray="3,3"/>
<rect x="664" y="448" width="4" height="7" fill="#000000" stroke-width="0"/>
<rect x="664" y="462" width="5" height="7" fill="#000000" stroke-width="0"/>
<rect x="664" y="476" width="9" height="7" fill="#000000" stroke-width="0"/>
<rect x="664" y="490" width="43" height="7" fill="#000000" stroke-width="0"/>
<rect x="664" y="442" width="61" height="60" fill-opacity="0" stroke="#000000" stroke-width="1"/>
<rect x="523" y="422" width="202" height="80" fill-opacity="0" stroke="#000000" stroke-width="1"/>
</g>
<g id="num">
<rect x="862" y="415" width="159" height="94" fill="#f8eed2" stroke-width="0"/>
<text x="907" y="431" font-family="Arial" font-size="11.25" font-weight="bold">Health-State</text>
<line x1="862" y1="435" x2="1021" y2="435" stroke="#000000" stroke-width="1"/>
<text x="873" y="449" font-family="Arial" font-size="11.25">Healthy</text>
<text x="873" y="463" font-family="Arial" font-size="11.25">S1</text>
<text x="873" y="477" font-family="Arial" font-size="11.25">S2</text>
<text x="873" y="491" font-family="Arial" font-size="11.25">S3</text>
<text x="873" y="505" font-family="Arial" font-size="11.25">S4</text>
<text x="941" y="449" font-family="Arial" font-size="11.25">   0</text>
<text x="933" y="463" font-family="Arial" font-size="11.25">39.2</text>
<text x="933" y="477" font-family="Arial" font-size="11.25">25.9</text>
<text x="933" y="491" font-family="Arial" font-size="11.25">25.2</text>
<text x="933" y="505" font-family="Arial" font-size="11.25">9.79</text>
<rect x="960" y="435" width="61" height="74" fill="#c6bea8" stroke-width="0"/>
<line x1="991" y1="436" x2="991" y2="508" stroke="black" stroke-width="1" stroke-dasharray="3,3"/>
<rect x="960" y="455" width="48" height="7" fill="#000000" stroke-width="0"/>
<rect x="960" y="469" width="32" height="7" fill="#000000" stroke-width="0"/>
<rect x="960" y="483" width="31" height="7" fill="#000000" stroke-width="0"/>
<rect x="960" y="497" width="12" height="7" fill="#000000" stroke-width="0"/>
<rect x="960" y="435" width="61" height="74" fill-opacity="0" stroke="#000000" stroke-width="1"/>
<rect x="862" y="415" width="159" height="94" fill-opacity="0" stroke="#000000" stroke-width="1"/>
</g>
<g id="restecg">
<rect x="990" y="255" width="263" height="66" fill="#f8eed2" stroke-width="0"/>
<text x="1096" y="271" font-family="Arial" font-size="11.25" font-weight="bold">Rest-Ecg</text>
<line x1="990" y1="275" x2="1253" y2="275" stroke="#000000" stroke-width="1"/>
<text x="1001" y="289" font-family="Arial" font-size="11.25">Normal</text>
<text x="1001" y="303" font-family="Arial" font-size="11.25">STTabnormality</text>
<text x="1001" y="317" font-family="Arial" font-size="11.25">LeftVentricularHypertrophy</text>
<text x="1165" y="289" font-family="Arial" font-size="11.25">39.9</text>
<text x="1165" y="303" font-family="Arial" font-size="11.25">4.55</text>
<text x="1165" y="317" font-family="Arial" font-size="11.25">55.5</text>
<rect x="1192" y="275" width="61" height="46" fill="#c6bea8" stroke-width="0"/>
<line x1="1207" y1="276" x2="1207" y2="320" stroke="black" stroke-width="1" stroke-dasharray="3,3"/>
<line x1="1223" y1="276" x2="1223" y2="320" stroke="black" stroke-width="1" stroke-dasharray="3,3"/>
<line x1="1238" y1="276" x2="1238" y2="320" stroke="black" stroke-width="1" stroke-dasharray="3,3"/>
<rect x="1192" y="281" width="24" height="7" fill="#000000" stroke-width="0"/>
<rect x="1192" y="295" width="3" height="7" fill="#000000" stroke-width="0"/>
<rect x="1192" y="309" width="34" height="7" fill="#000000" stroke-width="0"/>
<rect x="1192" y="275" width="61" height="46" fill-opacity="0" stroke="#000000" stroke-width="1"/>
<rect x="990" y="255" width="263" height="66" fill-opacity="0" stroke="#000000" stroke-width="1"/>
</g>
<g id="slope">
<rect x="1198" y="603" width="147" height="66" fill="#f8eed2" stroke-width="0"/>
<text x="1240" y="619" font-family="Arial" font-size="11.25" font-weight="bold">Slope-Peak</text>
<line x1="1198" y1="623" x2="1345" y2="623" stroke="#000000" stroke-width="1"/>
<text x="1209" y="637" font-family="Arial" font-size="11.25">down</text>
<text x="1209" y="651" font-family="Arial" font-size="11.25">flat</text>
<text x="1209" y="665" font-family="Arial" font-size="11.25">up</text>
<text x="1257" y="637" font-family="Arial" font-size="11.25">27.2</text>
<text x="1257" y="651" font-family="Arial" font-size="11.25">61.2</text>
<text x="1257" y="665" font-family="Arial" font-size="11.25">11.6</text>
<rect x="1284" y="623" width="61" height="46" fill="#c6bea8" stroke-width="0"/>
<line x1="1299" y1="624" x2="1299" y2="668" stroke="black" stroke-width="1" stroke-dasharray="3,3"/>
<line x1="1315" y1="624" x2="1315" y2="668" stroke="black" stroke-width="1" stroke-dasharray="3,3"/>
<line x1="1330" y1="624" x2="1330" y2="668" stroke="black" stroke-width="1" stroke-dasharray="3,3"/>
<rect x="1284" y="629" width="17" height="7" fill="#000000" stroke-width="0"/>
<rect x="1284" y="643" width="37" height="7" fill="#000000" stroke-width="0"/>
<rect x="1284" y="657" width="7" height="7" fill="#000000" stroke-width="0"/>
<rect x="1284" y="623" width="61" height="46" fill-opacity="0" stroke="#000000" stroke-width="1"/>
<rect x="1198" y="603" width="147" height="66" fill-opacity="0" stroke="#000000" stroke-width="1"/>
</g>
<g id="oldpeak">
<rect x="1386" y="519" width="143" height="66" fill="#f8eed2" stroke-width="0"/>
<text x="1433" y="535" font-family="Arial" font-size="11.25" font-weight="bold">Old-Peak</text>
<line x1="1386" y1="539" x2="1529" y2="539" stroke="#000000" stroke-width="1"/>
<text x="1397" y="553" font-family="Arial" font-size="11.25">High</text>
<text x="1397" y="567" font-family="Arial" font-size="11.25">Zero</text>
<text x="1397" y="581" font-family="Arial" font-size="11.25">Low</text>
<text x="1441" y="553" font-family="Arial" font-size="11.25">30.4</text>
<text x="1441" y="567" font-family="Arial" font-size="11.25">21.7</text>
<text x="1441" y="581" font-family="Arial" font-size="11.25">47.9</text>
<rect x="1468" y="539" width="61" height="46" fill="#c6bea8" stroke-width="0"/>
<line x1="1483" y1="540" x2="1483" y2="584" stroke="black" stroke-width="1" stroke-dasharray="3,3"/>
<line x1="1499" y1="540" x2="1499" y2="584" stroke="black" stroke-width="1" stroke-dasharray="3,3"/>
<line x1="1514" y1="540" x2="1514" y2="584" stroke="black" stroke-width="1" stroke-dasharray="3,3"/>
<rect x="1468" y="545" width="19" height="7" fill="#000000" stroke-width="0"/>
<rect x="1468" y="559" width="13" height="7" fill="#000000" stroke-width="0"/>
<rect x="1468" y="573" width="29" height="7" fill="#000000" stroke-width="0"/>
<rect x="1468" y="539" width="61" height="46" fill-opacity="0" stroke="#000000" stroke-width="1"/>
<rect x="1386" y="519" width="143" height="66" fill-opacity="0" stroke="#000000" stroke-width="1"/>
</g>
<g id="ca">
<rect x="1383" y="379" width="149" height="94" fill="#f8eed2" stroke-width="0"/>
<text x="1420" y="395" font-family="Arial" font-size="11.25" font-weight="bold">Colored-Floro</text>
<line x1="1383" y1="399" x2="1532" y2="399" stroke="#000000" stroke-width="1"/>
<text x="1394" y="413" font-family="Arial" font-size="11.25">Zero</text>
<text x="1394" y="427" font-family="Arial" font-size="11.25">One</text>
<text x="1394" y="441" font-family="Arial" font-size="11.25">Two</text>
<text x="1394" y="455" font-family="Arial" font-size="11.25">Three</text>
<text x="1394" y="469" font-family="Arial" font-size="11.25">Four</text>
<text x="1444" y="413" font-family="Arial" font-size="11.25">32.1</text>
<text x="1444" y="427" font-family="Arial" font-size="11.25">30.6</text>
<text x="1444" y="441" font-family="Arial" font-size="11.25">22.0</text>
<text x="1444" y="455" font-family="Arial" font-size="11.25">12.8</text>
<text x="1444" y="469" font-family="Arial" font-size="11.25">2.47</text>
<rect x="1471" y="399" width="61" height="74" fill="#c6bea8" stroke-width="0"/>
<line x1="1502" y1="400" x2="1502" y2="472" stroke="black" stroke-width="1" stroke-dasharray="3,3"/>
<rect x="1471" y="405" width="39" height="7" fill="#000000" stroke-width="0"/>
<rect x="1471" y="419" width="37" height="7" fill="#000000" stroke-width="0"/>
<rect x="1471" y="433" width="27" height="7" fill="#000000" stroke-width="0"/>
<rect x="1471" y="447" width="16" height="7" fill="#000000" stroke-width="0"/>
<rect x="1471" y="461" width="3" height="7" fill="#000000" stroke-width="0"/>
<rect x="1471" y="399" width="61" height="74" fill-opacity="0" stroke="#000000" stroke-width="1"/>
<rect x="1383" y="379" width="149" height="94" fill-opacity="0" stroke="#000000" stroke-width="1"/>
</g>
<g id="thalach">
<rect x="857" y="627" width="169" height="66" fill="#f8eed2" stroke-width="0"/>
<text x="897" y="643" font-family="Arial" font-size="11.25" font-weight="bold">Max-Heart-Rate</text>
<line x1="857" y1="647" x2="1026" y2="647" stroke="#000000" stroke-width="1"/>
<text x="868" y="661" font-family="Arial" font-size="11.25">Low</text>
<text x="868" y="675" font-family="Arial" font-size="11.25">Moderate</text>
<text x="868" y="689" font-family="Arial" font-size="11.25">High</text>
<text x="938" y="661" font-family="Arial" font-size="11.25">2.61</text>
<text x="938" y="675" font-family="Arial" font-size="11.25">2.61</text>
<text x="938" y="689" font-family="Arial" font-size="11.25">94.8</text>
<rect x="965" y="647" width="61" height="46" fill="#c6bea8" stroke-width="0"/>
<line x1="980" y1="648" x2="980" y2="692" stroke="black" stroke-width="1" stroke-dasharray="3,3"/>
<line x1="996" y1="648" x2="996" y2="692" stroke="black" stroke-width="1" stroke-dasharray="3,3"/>
<line x1="1011" y1="648" x2="1011" y2="692" stroke="black" stroke-width="1" stroke-dasharray="3,3"/>
<rect x="965" y="653" width="2" height="7" fill="#000000" stroke-width="0"/>
<rect x="965" y="667" width="2" height="7" fill="#000000" stroke-width="0"/>
<rect x="965" y="681" width="58" height="7" fill="#000000" stroke-width="0"/>
<rect x="965" y="647" width="61" height="46" fill-opacity="0" stroke="#000000" stroke-width="1"/>
<rect x="857" y="627" width="169" height="66" fill-opacity="0" stroke="#000000" stroke-width="1"/>
</g>
<g id="trestbps">
<rect x="287" y="693" width="169" height="66" fill="#f8eed2" stroke-width="0"/>
<text x="349" y="709" font-family="Arial" font-size="11.25" font-weight="bold">Rest-BP</text>
<line x1="287" y1="713" x2="456" y2="713" stroke="#000000" stroke-width="1"/>
<text x="298" y="727" font-family="Arial" font-size="11.25">low</text>
<text x="298" y="741" font-family="Arial" font-size="11.25">moderate</text>
<text x="298" y="755" font-family="Arial" font-size="11.25">high</text>
<text x="368" y="727" font-family="Arial" font-size="11.25">2.17</text>
<text x="368" y="741" font-family="Arial" font-size="11.25">2.17</text>
<text x="368" y="755" font-family="Arial" font-size="11.25">95.7</text>
<rect x="395" y="713" width="61" height="46" fill="#c6bea8" stroke-width="0"/>
<line x1="410" y1="714" x2="410" y2="758" stroke="black" stroke-width="1" stroke-dasharray="3,3"/>
<line x1="426" y1="714" x2="426" y2="758" stroke="black" stroke-width="1" stroke-dasharray="3,3"/>
<line x1="441" y1="714" x2="441" y2="758" stroke="black" stroke-width="1" stroke-dasharray="3,3"/>
<rect x="395" y="719" width="1" height="7" fill="#000000" stroke-width="0"/>
<rect x="395" y="733" width="1" height="7" fill="#000000" stroke-width="0"/>
<rect x="395" y="747" width="58" height="7" fill="#000000" stroke-width="0"/>
<rect x="395" y="713" width="61" height="46" fill-opacity="0" stroke="#000000" stroke-width="1"/>
<rect x="287" y="693" width="169" height="66" fill-opacity="0" stroke="#000000" stroke-width="1"/>
</g>
<g id="exang">
<rect x="285" y="508" width="138" height="52" fill="#f8eed2" stroke-width="0"/>
<text x="320" y="524" font-family="Arial" font-size="11.25" font-weight="bold">Exer-Angina</text>
<line x1="285" y1="528" x2="423" y2="528" stroke="#000000" stroke-width="1"/>
<text x="296" y="542" font-family="Arial" font-size="11.25">Yes</text>
<text x="296" y="556" font-family="Arial" font-size="11.25">No</text>
<text x="335" y="542" font-family="Arial" font-size="11.25">43.1</text>
<text x="335" y="556" font-family="Arial" font-size="11.25">56.9</text>
<rect x="362" y="528" width="61" height="32" fill="#c6bea8" stroke-width="0"/>
<line x1="377" y1="529" x2="377" y2="559" stroke="black" stroke-width="1" stroke-dasharray="3,3"/>
<line x1="393" y1="529" x2="393" y2="559" stroke="black" stroke-width="1" stroke-dasharray="3,3"/>
<line x1="408" y1="529" x2="408" y2="559" stroke="black" stroke-width="1" stroke-dasharray="3,3"/>
<rect x="362" y="534" width="26" height="7" fill="#000000" stroke-width="0"/>
<rect x="362" y="548" width="35" height="7" fill="#000000" stroke-width="0"/>
<rect x="362" y="528" width="61" height="32" fill-opacity="0" stroke="#000000" stroke-width="1"/>
<rect x="285" y="508" width="138" height="52" fill-opacity="0" stroke="#000000" stroke-width="1"/>
</g>
<g id="chol">
<rect x="1277" y="104" width="169" height="80" fill="#f8eed2" stroke-width="0"/>
<text x="1350" y="120" font-family="Arial" font-size="11.25" font-weight="bold">Chol</text>
<line x1="1277" y1="124" x2="1446" y2="124" stroke="#000000" stroke-width="1"/>
<text x="1288" y="138" font-family="Arial" font-size="11.25">Normal</text>
<text x="1288" y="152" font-family="Arial" font-size="11.25">Moderate</text>
<text x="1288" y="166" font-family="Arial" font-size="11.25">High</text>
<text x="1288" y="180" font-family="Arial" font-size="11.25">VeryHigh</text>
<text x="1358" y="138" font-family="Arial" font-size="11.25">1.19</text>
<text x="1358" y="152" font-family="Arial" font-size="11.25">1.19</text>
<text x="1358" y="166" font-family="Arial" font-size="11.25">1.19</text>
<text x="1358" y="180" font-family="Arial" font-size="11.25">96.4</text>
<rect x="1385" y="124" width="61" height="60" fill="#c6bea8" stroke-width="0"/>
<line x1="1400" y1="125" x2="1400" y2="183" stroke="black" stroke-width="1" stroke-dasharray="3,3"/>
<line x1="1416" y1="125" x2="1416" y2="183" stroke="black" stroke-width="1" stroke-dasharray="3,3"/>
<line x1="1431" y1="125" x2="1431" y2="183" stroke="black" stroke-width="1" stroke-dasharray="3,3"/>
<rect x="1385" y="130" width="1" height="7" fill="#000000" stroke-width="0"/>
<rect x="1385" y="144" width="1" height="7" fill="#000000" stroke-width="0"/>
<rect x="1385" y="158" width="1" height="7" fill="#000000" stroke-width="0"/>
<rect x="1385" y="172" width="59" height="7" fill="#000000" stroke-width="0"/>
<rect x="1385" y="124" width="61" height="60" fill-opacity="0" stroke="#000000" stroke-width="1"/>
<rect x="1277" y="104" width="169" height="80" fill-opacity="0" stroke="#000000" stroke-width="1"/>
</g>
<g id="fbs">
<rect x="1309" y="280" width="141" height="52" fill="#f8eed2" stroke-width="0"/>
<text x="1351" y="296" font-family="Arial" font-size="11.25" font-weight="bold">Fast-Bsug</text>
<line x1="1309" y1="300" x2="1450" y2="300" stroke="#000000" stroke-width="1"/>
<text x="1320" y="314" font-family="Arial" font-size="11.25">high</text>
<text x="1320" y="328" font-family="Arial" font-size="11.25">low</text>
<text x="1362" y="314" font-family="Arial" font-size="11.25">17.7</text>
<text x="1362" y="328" font-family="Arial" font-size="11.25">82.3</text>
<rect x="1389" y="300" width="61" height="32" fill="#c6bea8" stroke-width="0"/>
<line x1="1404" y1="301" x2="1404" y2="331" stroke="black" stroke-width="1" stroke-dasharray="3,3"/>
<line x1="1420" y1="301" x2="1420" y2="331" stroke="black" stroke-width="1" stroke-dasharray="3,3"/>
<line x1="1435" y1="301" x2="1435" y2="331" stroke="black" stroke-width="1" stroke-dasharray="3,3"/>
<rect x="1389" y="306" width="11" height="7" fill="#000000" stroke-width="0"/>
<rect x="1389" y="320" width="50" height="7" fill="#000000" stroke-width="0"/>
<rect x="1389" y="300" width="61" height="32" fill-opacity="0" stroke="#000000" stroke-width="1"/>
<rect x="1309" y="280" width="141" height="52" fill-opacity="0" stroke="#000000" stroke-width="1"/>
</g>

</svg>

